<svg viewBox="0 0 62 62" fill="none" xmlns="http://www.w3.org/2000/svg">
<path d="M17.375 7.34375C9.30319 11.9481 4 20.7923 4 30.75C4 36.0406 5.56886 41.2125 8.50819 45.6115C11.4475 50.0105 15.6253 53.4391 20.5132 55.4638C25.4011 57.4884 30.7797 58.0182 35.9687 56.986C41.1576 55.9538 45.924 53.4062 49.6651 49.6651C53.4062 45.924 55.9538 41.1576 56.986 35.9687C58.0182 30.7797 57.4884 25.4011 55.4638 20.5132C53.4391 15.6253 50.0105 11.4475 45.6115 8.50819C41.2125 5.56886 36.0406 4 30.75 4" stroke="black" stroke-width="8" stroke-linecap="round" stroke-linejoin="round"/>
<path d="M17.375 20.7187V7.34375H4" stroke="black" stroke-width="8" stroke-linecap="round" stroke-linejoin="round"/>
</svg>
