<svg viewBox="0 0 133 133" fill="none" xmlns="http://www.w3.org/2000/svg">
<rect x="6.70395" y="11.2478" width="114.956" height="114.388" rx="11" fill="#C9F9FC" stroke="black" stroke-width="10"/>
<rect x="7.97589" y="7.97589" width="116.956" height="116.388" rx="12" fill="#C9F9FC" stroke="black" stroke-width="8"/>
<path d="M50.9094 29.5374C50.9938 29.5342 51.0783 29.5436 51.1599 29.5652C51.7029 29.8912 60.6038 45.8481 64.403 54.7496H65.0551C69.7233 46.0651 78.6242 29.6737 79.3841 29.5652C79.401 29.5643 79.4179 29.5643 79.4347 29.5652C80.9682 29.5652 96.6446 33.8165 96.7519 35.103C96.861 36.5145 79.8181 66.5835 79.0581 67.6689C83.1834 74.5074 98.2718 101.212 98.1639 101.972C97.8549 102.796 84.1313 107.44 79.6835 107.44C79.4745 107.442 79.2657 107.428 79.0587 107.399C78.4078 107.182 69.5063 90.8988 64.9471 81.998H64.2957C59.845 90.8988 51.052 107.182 50.5096 107.182C50.1978 107.231 49.8824 107.254 49.5667 107.25C44.7991 107.25 32.0405 103.538 31.8389 102.732C31.6219 101.972 46.3849 74.9419 50.8356 67.6689C50.1836 66.692 33.4673 36.623 33.5757 35.2115C33.5757 33.9659 48.4819 29.5391 50.9106 29.5391L50.9094 29.5374ZM50.9106 22.7233C48.2501 22.7233 42.4914 24.4028 39.2948 25.4042C37.655 25.9153 35.2916 26.6974 33.3503 27.496C31.4191 28.2912 26.9423 30.1303 26.7656 34.9162C26.6589 36.9899 27.3524 38.5745 30.0758 43.8619C31.5111 46.6484 33.4837 50.3477 35.9317 54.8569C38.014 58.6891 40.943 64.0116 42.9565 67.6053C40.2916 72.2116 36.6065 78.8548 33.599 84.3869C31.3504 88.5224 29.4261 92.1319 28.0328 94.827C25.3877 99.9462 24.4806 101.7 25.2616 104.525C26.2715 108.258 29.6879 109.471 31.74 110.201C33.2208 110.727 35.1644 111.321 37.2126 111.873C40.2456 112.692 45.8834 114.066 49.565 114.066C50.1558 114.069 50.746 114.031 51.3315 113.952C54.5769 113.578 56.2161 111.055 56.7841 110.184C57.1425 109.633 57.5901 108.896 58.1524 107.93C59.1145 106.28 60.4169 103.948 61.9192 101.188C62.8172 99.5413 63.7481 97.8083 64.6711 96.0737C65.6242 97.8345 66.5812 99.5901 67.4974 101.25C69.0309 104.03 70.3606 106.379 71.3409 108.046C73.15 111.122 74.241 112.979 76.8958 113.865L77.4535 114.052L78.034 114.14C78.5794 114.22 79.1299 114.259 79.6812 114.257C83.0817 114.257 88.5372 112.768 92.5148 111.519C94.6413 110.851 96.6838 110.14 98.2673 109.517C100.539 108.622 103.366 107.508 104.544 104.365L104.804 103.67L104.909 102.936C105.264 100.447 104.531 99.0857 101.803 94.0216C100.41 91.4361 98.4519 87.8908 96.1419 83.7684C92.8362 77.871 89.3727 71.7964 86.961 67.6558C89.2454 63.6714 92.5556 57.761 94.1897 54.8149C96.6854 50.3142 98.6978 46.6104 100.172 43.8057C103.059 38.3104 103.717 36.8002 103.546 34.5805V34.56V34.539C103.154 29.8248 98.7694 28.143 96.6622 27.333C94.7043 26.581 92.2682 25.8222 90.5688 25.3184C87.3364 24.3591 81.5947 22.7505 79.4364 22.7505C79.212 22.7505 78.9866 22.7608 78.7673 22.7806L78.5935 22.796L78.4231 22.821C74.9476 23.318 73.4163 25.8659 71.6431 28.8166C70.6724 30.4319 69.3587 32.7204 67.7394 35.6199C66.8789 37.1597 65.9746 38.7949 65.0698 40.4478C64.1219 38.6194 63.2483 36.9785 62.5707 35.7153C61.2263 33.2162 59.9012 30.8267 58.8356 28.983C57.1618 26.0829 56.3979 24.7589 54.678 23.7263L54.0339 23.3395L53.3217 23.1021C52.5463 22.8466 51.7344 22.7194 50.918 22.7256L50.9106 22.7233Z" fill="black"/>
<path d="M53.7522 24.9895C53.8364 24.9863 53.9206 24.9956 54.0021 25.0174C54.5456 25.3434 63.4465 41.3003 67.2457 50.2017H67.895C72.5621 41.5173 81.4635 25.1264 82.2234 25.0174C82.2405 25.0165 82.2576 25.0165 82.2746 25.0174C83.8081 25.0174 99.4845 29.2687 99.5924 30.5552C99.7014 31.9672 82.658 62.0357 81.898 63.1211C86.0233 69.9596 101.112 96.6639 101.004 97.4238C100.694 98.2485 86.9707 102.892 82.5233 102.892C82.3144 102.894 82.1055 102.88 81.8986 102.851C81.2477 102.634 72.3462 86.3516 67.787 77.4501H67.1356C62.6849 86.3516 53.8919 102.635 53.3489 102.635C53.0371 102.684 52.7217 102.706 52.406 102.702C47.639 102.702 34.8804 98.9909 34.6788 98.1838C34.4612 97.4238 49.2248 70.3941 53.6755 63.1211C53.0235 62.1447 36.306 32.0751 36.4151 30.6637C36.4151 29.4181 51.3212 24.9912 53.7505 24.9912L53.7522 24.9895ZM53.7505 18.1754C51.09 18.1754 45.3307 19.855 42.1347 20.8563C40.4943 21.3675 38.1315 22.1496 36.1901 22.9482C34.259 23.7434 29.7822 25.5825 29.605 30.3683C29.4982 32.4426 30.1917 34.0273 32.9152 39.3141C34.3505 42.1006 36.3231 45.7999 38.7711 50.3096C40.8533 54.1413 43.7829 59.4638 45.7959 63.0575C43.1309 67.6638 39.4458 74.3075 36.4384 79.8391C34.1897 83.9745 32.2659 87.5847 30.8721 90.2792C28.2276 95.3984 27.32 97.1517 28.1009 99.9775C29.1102 103.71 32.5278 104.923 34.5793 105.653C36.0606 106.179 38.0043 106.773 40.0519 107.325C43.0849 108.144 48.7227 109.518 52.4043 109.518C52.9953 109.521 53.5857 109.483 54.1714 109.404C57.4162 109.029 59.056 106.508 59.624 105.636C59.9824 105.085 60.4294 104.348 60.9917 103.382C61.9539 101.731 63.2562 99.3998 64.7591 96.64C65.6565 94.9929 66.588 93.2599 67.511 91.5253C68.4635 93.2861 69.4205 95.0417 70.3373 96.7019C71.8708 99.4816 73.2005 101.831 74.1808 103.498C75.9893 106.574 77.0775 108.431 79.7357 109.317L80.2934 109.503L80.8733 109.591C81.4187 109.672 81.9693 109.711 82.5205 109.709C85.9205 109.709 91.3759 108.22 95.3541 106.97C97.4795 106.303 99.5231 105.592 101.106 104.968C103.378 104.073 106.205 102.96 107.383 99.8167L107.644 99.1215L107.748 98.3871C108.103 95.8982 107.37 94.5373 104.642 89.4732C103.25 86.8877 101.291 83.3424 98.9806 79.22C95.6761 73.3226 92.2114 67.248 89.8009 63.1074C92.0848 59.123 95.3956 53.2126 97.0285 50.2665C99.5242 45.7663 101.538 42.062 103.011 39.2578C105.899 33.762 106.556 32.2523 106.384 30.0321V30.0116V29.9906C105.993 25.2764 101.609 23.5946 99.5021 22.7852C97.5431 22.0326 95.107 21.2744 93.4087 20.77C90.1758 19.8107 84.4312 18.2021 82.2763 18.2021C82.0491 18.2021 81.8259 18.2124 81.6072 18.2322L81.4334 18.2476L81.263 18.2726C77.7875 18.7696 76.2568 21.3181 74.483 24.2682C73.5129 25.8835 72.1991 28.1719 70.5787 31.0721C69.7193 32.6113 68.8179 34.2465 67.9092 35.8999C66.9618 34.071 66.0882 32.4301 65.41 31.1675C64.0656 28.6684 62.7405 26.2783 61.675 24.4346C60.0011 21.5379 59.2366 20.2105 57.5173 19.1779L56.8732 18.7911L56.161 18.5543C55.3857 18.2983 54.5737 18.1709 53.7573 18.1771L53.7505 18.1754Z" fill="black"/>
<path d="M65.4248 77.4479C60.9741 86.3493 52.1817 102.632 51.6393 102.632C47.9474 103.283 33.185 99.05 32.968 98.1815C32.751 97.4215 47.5135 70.3918 51.9642 63.1188C51.3127 62.1424 34.5964 32.0728 34.7043 30.6614C34.7043 29.3596 50.9873 24.584 52.2902 25.0168C52.8326 25.3428 61.7341 41.2997 65.5339 50.2012H66.1848C70.853 41.5167 79.7533 25.1259 80.5133 25.0168C81.706 24.9089 97.7732 29.25 97.8822 30.5529C97.9907 31.9649 80.9478 62.0334 80.1878 63.1188C84.3125 69.9573 99.4016 96.6616 99.2931 97.4215C98.9682 98.29 83.7701 103.392 80.1878 102.849C79.5369 102.632 70.6355 86.3493 66.0763 77.4479H65.4248Z" fill="#FCD015"/>
<path d="M80.4701 102.849C79.8192 102.632 70.9178 86.3493 66.3614 77.4479H65.7071C61.2564 86.3493 52.464 102.632 51.9216 102.632C48.637 103.212 36.5809 99.9218 33.816 98.5791V96.7672C36.5327 91.0306 48.2325 69.7 52.188 63.2148H80.5303C84.7368 70.2044 99.6855 96.665 99.5782 97.421C99.2692 98.2457 85.549 102.888 81.0983 102.889C80.8882 102.891 80.6782 102.878 80.4701 102.849Z" fill="#FBB500"/>
<path d="M82.4745 104.589C82.1942 104.59 81.9142 104.571 81.6367 104.532L81.3527 104.463C80.5808 104.206 80.2611 104.099 74.8107 94.2266C72.361 89.7901 69.6199 84.6811 67.4684 80.5519C65.3902 84.6243 62.7047 89.7135 60.2675 94.1903C54.9569 103.944 54.5803 104.319 53.4795 104.333C50.8793 104.699 45.3705 103.427 42.2772 102.624C33.4547 100.332 33.2236 99.4084 33.0191 98.591C32.7919 97.8078 32.6857 97.4255 40.9232 82.2746C45.1484 74.5029 49.4259 66.8868 51.687 63.1C50.288 60.652 46.6359 54.0816 43.257 47.8628C34.7577 32.2217 34.6577 31.2499 34.7072 30.5643C34.7359 30.2212 34.8447 29.8896 35.0248 29.5961C35.2049 29.3026 35.4513 29.0555 35.7443 28.8745C37.8538 27.3535 52.3021 22.6534 54.5331 23.3964L54.7115 23.4532L54.8728 23.5503C55.2403 23.7712 55.7958 24.1052 60.8934 33.5791C62.2594 36.1163 65.3498 41.9472 67.6757 46.9932C80.3008 23.5628 80.8387 23.4861 81.9747 23.3237L82.0621 23.3134C83.8377 23.1561 98.3247 27.153 100.485 28.9671C100.708 29.1405 100.894 29.3574 101.03 29.6046C101.167 29.8518 101.252 30.1242 101.28 30.4053C101.337 31.1158 101.394 31.8394 92.5517 47.7782C89.0608 54.0731 85.3298 60.6469 83.8769 63.1165C86.1204 66.8959 90.5086 74.5631 94.5152 81.71C102.837 96.5588 102.788 96.9024 102.681 97.6567L102.654 97.8396L102.59 98.01C102.343 98.6688 102.006 99.5708 93.1611 102.285C90.2445 103.191 85.2434 104.589 82.4745 104.589ZM66.0774 75.7439H68.8236L69.2984 76.6709C73.8247 85.507 80.9421 98.4581 82.7483 101.192C86.0187 101.107 95.5171 98.1173 98.8262 96.7053C96.1515 91.4174 84.5738 70.8621 80.4343 63.9981L79.8618 63.0489L80.4979 62.1401C81.4573 60.7043 95.0718 36.6247 97.5545 31.1771C94.7043 29.8873 85.7796 27.3569 82.9204 26.8173C81.5845 28.7996 77.4905 35.9397 69.3916 51.0066L68.9088 51.904H66.1138L65.6719 50.8691C62.2276 42.7986 55.0227 29.785 53.1353 26.7497C50.3272 27.1774 41.2429 29.8799 38.4195 31.2476C40.7965 36.5758 54.2253 60.8213 55.0932 62.1822L55.6663 63.0796L55.1233 64.0071C51.0906 70.6014 39.3902 92.0087 36.8121 97.4102C40.0644 98.6598 49.243 101.052 52.4776 101.002C54.26 98.2877 61.4432 85.0106 65.6066 76.6845L66.0774 75.7439Z" fill="#FCD015"/>
<path d="M27.7516 31.5816L30.6637 26.9213L33.1231 31.2584C33.1231 31.2584 31.6412 34.5362 31.506 34.626C31.3708 34.7157 27.7516 31.5816 27.7516 31.5816Z" fill="black"/>
<path d="M106.993 100.682L103.667 106.005L99.3919 102.893L103.691 97.3443L106.993 100.682Z" fill="black"/>
</svg>
