<svg viewBox="0 0 133 133" fill="none" xmlns="http://www.w3.org/2000/svg">
<rect x="6.70395" y="11.2478" width="114.956" height="114.388" rx="11" fill="#C9F9FC" stroke="black" stroke-width="10"/>
<rect x="7.97588" y="7.97589" width="116.956" height="116.388" rx="12" fill="#C9F9FC" stroke="black" stroke-width="8"/>
<path d="M100.538 31.4663C92.7147 23.1419 81.7378 18.7434 68.7918 18.7434C59.0924 18.7434 50.5101 21.3499 43.4967 26.334C38.7791 28.699 34.5871 31.9914 31.1715 36.0141C24.2557 44.1095 20.4474 54.9898 20.4474 66.65C20.4474 94.476 37.9486 113.172 63.9969 113.172C73.9411 113.172 82.6568 110.55 89.6959 105.536C94.478 103.149 98.7097 99.79 102.121 95.675C108.779 87.6829 112.446 76.8827 112.446 65.2635C112.447 51.4422 108.329 39.7554 100.538 31.4663ZM69.1104 103.269C46.4968 103.269 32.3779 87.2371 32.3779 63.563C32.3779 51.4082 37.2262 39.4322 46.937 32.2671C52.1677 29.7992 57.8935 28.5601 63.6766 28.6445C85.971 28.6445 100.516 43.6126 100.516 68.3505C100.516 80.2855 96.0101 92.3847 86.226 99.6299C81.4646 101.93 75.7842 103.269 69.1104 103.269Z" fill="black"/>
<path d="M69.1104 42.8611C64.6484 42.8611 60.9826 44.2941 58.2052 46.8836C50.914 49.4423 46.9023 57.0885 46.9023 67.7092C46.9023 79.6011 53.3773 88.9427 63.5692 88.9427C68.1392 88.9427 71.7283 87.5313 74.3881 84.9827C81.8287 82.4671 85.3502 74.6892 85.3502 63.8811C85.3542 49.6565 78.5588 42.8611 69.1104 42.8611ZM68.6856 79.0416C61.9164 79.0416 58.8334 71.5681 58.8334 64.624C58.8334 59.657 59.9125 55.5113 61.8755 52.9502V52.9474C62.5747 52.8221 63.2837 52.7601 63.9941 52.7622C70.2498 52.7622 73.4226 57.5412 73.4226 66.9657C73.4226 73.1034 72.2497 76.7555 70.6741 78.9292C70.0149 79.0154 69.3503 79.053 68.6856 79.0416Z" fill="black"/>
<path d="M105.63 65.3078C105.63 84.0978 94.4822 103.313 69.1087 103.313C46.4951 103.313 32.3762 87.2814 32.3762 63.6073C32.3762 44.3924 44.4793 25.6018 68.7901 25.6018C91.0851 25.6018 105.63 40.5704 105.63 65.3078ZM69.1087 42.9055C58.1739 42.9055 52.0159 51.5047 52.0159 64.6683C52.0159 76.5607 58.4909 85.9017 68.6839 85.9017C80.0435 85.9017 85.3519 77.1968 85.3519 63.9254C85.3525 49.7008 78.5577 42.9055 69.1093 42.9055H69.1087Z" fill="#FCD015"/>
<path d="M68.877 103.313C63.6707 103.373 58.5036 102.406 53.671 100.468C49.2842 98.673 45.3457 95.9355 42.1341 92.4494C38.8664 88.8518 36.3659 84.6263 34.785 80.0305C33.017 74.8664 32.1246 69.4432 32.1444 63.985H51.7898C51.7864 64.2003 51.7841 64.4303 51.7841 64.6666C51.7662 67.487 52.1608 70.2949 52.9553 73.0011C53.6589 75.4292 54.7902 77.7121 56.2962 79.7425C57.688 81.6195 59.4824 83.1611 61.5477 84.254C63.6814 85.3549 66.0508 85.9202 68.4516 85.9012C71.0009 85.9498 73.5276 85.4151 75.8388 84.3381C77.9135 83.3191 79.6995 81.7959 81.033 79.9078C82.4798 77.8156 83.5213 75.4705 84.1035 72.9943C84.809 70.044 85.1504 67.0183 85.1202 63.985H105.384C105.394 64.432 105.398 64.8773 105.398 65.3078C105.399 67.6603 105.222 70.0096 104.869 72.3355C104.518 74.6543 103.98 76.9409 103.26 79.1728C101.856 83.619 99.6132 87.7548 96.6525 91.3566C93.5709 95.0689 89.6844 98.0307 85.2877 100.017C80.1163 102.277 74.5201 103.401 68.877 103.313Z" fill="#FBB500"/>
<path d="M68.8781 105.017C57.3736 105.017 47.6549 101.03 40.7726 93.4871C34.0136 86.0784 30.4416 75.7468 30.4416 63.6078C30.4416 44.4827 42.3692 23.8984 68.5595 23.8984C80.0589 23.8984 89.7481 27.7414 96.5809 35.0116C103.464 42.3386 107.102 52.8122 107.102 65.3089C107.102 75.7348 103.856 85.3729 97.9623 92.4483C91.1118 100.67 81.0546 105.017 68.8781 105.017ZM68.5595 27.3058C44.711 27.3058 33.8495 46.1236 33.8495 63.6073C33.8495 86.6924 47.5987 101.609 68.8781 101.609C92.9288 101.609 103.695 83.3771 103.695 65.3084C103.694 41.8677 90.2314 27.3058 68.5595 27.3058ZM68.4533 87.6057C57.6361 87.6057 50.0813 78.1732 50.0813 64.6683C50.0813 50.1932 57.2833 41.2015 68.8781 41.2015C80.1162 41.2015 86.8264 49.6962 86.8264 63.9253C86.8253 78.9746 80.1287 87.6057 68.4533 87.6057ZM68.8781 44.6094C59.2417 44.6094 53.4892 52.1068 53.4892 64.6683C53.4892 76.1671 59.6427 84.1978 68.4533 84.1978C75.2799 84.1978 83.4174 80.6808 83.4174 63.9253C83.4174 51.6495 78.1181 44.6094 68.8781 44.6094Z" fill="#FCD015"/>
</svg>
